<svg width="645" height="645" viewBox="0 0 645 645" fill="none" xmlns="http://www.w3.org/2000/svg">
<g filter="url(#filter0_ddii_607_52)">
<circle cx="322.5" cy="322.5" r="322.5" fill="#F9F9F9"/>
</g>
<circle cx="322.5" cy="322.5" r="277" fill="#F9F9F9" stroke="#EE964B"/>
<g filter="url(#filter1_dd_607_52)">
<path d="M107.893 107.893C164.81 50.9758 242.007 19 322.5 19C402.993 19 480.19 50.9758 537.107 107.893L322.5 322.5L107.893 107.893Z" fill="#EE964B"/>
</g>
<line x1="561.75" y1="461.433" x2="322.624" y2="323.308" stroke="#EE964B"/>
<line x1="81.7505" y1="460.567" x2="322.901" y2="321.692" stroke="#EE964B"/>
<line x1="322.5" y1="600" x2="322.5" y2="323" stroke="#EE964B"/>
<line x1="322.521" y1="323.228" x2="109.019" y2="109.727" stroke="#EE964B"/>
<line x1="322.521" y1="322.521" x2="536.023" y2="109.019" stroke="#EE964B"/>
<g filter="url(#filter2_d_607_52)">
<circle cx="322.5" cy="322.5" r="110.5" fill="#F9F9F9"/>
<circle cx="322.5" cy="322.5" r="110" stroke="#EE964B"/>
<circle cx="322.5" cy="322.5" r="110" stroke="black" stroke-opacity="0.2"/>
</g>
<g filter="url(#filter3_d_607_52)">
<path d="M80.2217 310.878C80.2217 304.247 80.9281 299.12 82.3408 295.497C83.7764 291.874 85.793 289.128 88.3906 287.26C90.9883 285.391 93.8936 284.457 97.1064 284.457C100.365 284.457 103.316 285.403 105.959 287.294C108.602 289.162 110.687 291.977 112.214 295.736C113.763 299.496 114.538 304.543 114.538 310.878C114.538 317.19 113.775 322.214 112.248 325.951C110.744 329.688 108.659 332.514 105.993 334.428C103.327 336.319 100.365 337.265 97.1064 337.265C93.8936 337.265 90.9997 336.342 88.4248 334.496C85.8499 332.65 83.8333 329.905 82.375 326.259C80.9395 322.59 80.2217 317.463 80.2217 310.878ZM84.9727 310.98C84.9727 316.654 85.474 320.95 86.4766 323.866C87.502 326.76 89.0059 328.959 90.9883 330.463C92.9707 331.967 95.0671 332.719 97.2773 332.719C99.5104 332.719 101.595 331.99 103.532 330.531C105.469 329.05 106.939 326.84 107.941 323.9C109.195 320.323 109.821 316.016 109.821 310.98C109.821 305.922 109.263 301.786 108.146 298.573C107.03 295.338 105.48 292.979 103.498 291.498C101.538 289.994 99.4648 289.242 97.2773 289.242C95.0443 289.242 92.9479 289.994 90.9883 291.498C89.0286 292.979 87.5361 295.178 86.5107 298.095C85.4854 300.989 84.9727 305.284 84.9727 310.98ZM152.647 285.722V290.507H134.737L132.242 304.213C134.429 303.575 136.4 303.256 138.155 303.256C142.735 303.256 146.506 304.794 149.468 307.87C152.453 310.924 153.946 314.843 153.946 319.628C153.946 322.932 153.183 325.963 151.656 328.72C150.129 331.477 148.056 333.596 145.435 335.077C142.838 336.535 139.83 337.265 136.412 337.265C132.333 337.265 128.892 336.023 126.089 333.539C123.287 331.033 121.612 327.797 121.065 323.832H126.226C126.614 325.769 127.263 327.341 128.174 328.549C129.109 329.757 130.339 330.736 131.866 331.488C133.415 332.217 135.033 332.582 136.719 332.582C140.023 332.582 142.86 331.329 145.23 328.822C147.6 326.316 148.785 323.183 148.785 319.423C148.785 316.028 147.714 313.271 145.572 311.151C143.43 309.032 140.57 307.973 136.993 307.973C134.031 307.973 130.442 308.873 126.226 310.673L130.875 285.722H152.647Z" fill="#EE964B"/>
</g>
<g filter="url(#filter4_d_607_52)">
<path d="M287.222 131.878C287.222 125.247 287.928 120.12 289.341 116.497C290.776 112.874 292.793 110.128 295.391 108.26C297.988 106.391 300.894 105.457 304.106 105.457C307.365 105.457 310.316 106.403 312.959 108.294C315.602 110.162 317.687 112.977 319.214 116.736C320.763 120.496 321.538 125.543 321.538 131.878C321.538 138.19 320.775 143.214 319.248 146.951C317.744 150.688 315.659 153.514 312.993 155.428C310.327 157.319 307.365 158.265 304.106 158.265C300.894 158.265 298 157.342 295.425 155.496C292.85 153.65 290.833 150.905 289.375 147.259C287.939 143.59 287.222 138.463 287.222 131.878ZM291.973 131.98C291.973 137.654 292.474 141.95 293.477 144.866C294.502 147.76 296.006 149.959 297.988 151.463C299.971 152.967 302.067 153.719 304.277 153.719C306.51 153.719 308.595 152.99 310.532 151.531C312.469 150.05 313.939 147.84 314.941 144.9C316.195 141.323 316.821 137.016 316.821 131.98C316.821 126.922 316.263 122.786 315.146 119.573C314.03 116.338 312.48 113.979 310.498 112.498C308.538 110.994 306.465 110.242 304.277 110.242C302.044 110.242 299.948 110.994 297.988 112.498C296.029 113.979 294.536 116.178 293.511 119.095C292.485 121.989 291.973 126.284 291.973 131.98ZM338.182 106.722H348.06V157H343.07V111.644H335.174L338.182 106.722Z" fill="white"/>
</g>
<g filter="url(#filter5_d_607_52)">
<path d="M485.222 310.878C485.222 304.247 485.928 299.12 487.341 295.497C488.776 291.874 490.793 289.128 493.391 287.26C495.988 285.391 498.894 284.457 502.106 284.457C505.365 284.457 508.316 285.403 510.959 287.294C513.602 289.162 515.687 291.977 517.214 295.736C518.763 299.496 519.538 304.543 519.538 310.878C519.538 317.19 518.775 322.214 517.248 325.951C515.744 329.688 513.659 332.514 510.993 334.428C508.327 336.319 505.365 337.265 502.106 337.265C498.894 337.265 496 336.342 493.425 334.496C490.85 332.65 488.833 329.905 487.375 326.259C485.939 322.59 485.222 317.463 485.222 310.878ZM489.973 310.98C489.973 316.654 490.474 320.95 491.477 323.866C492.502 326.76 494.006 328.959 495.988 330.463C497.971 331.967 500.067 332.719 502.277 332.719C504.51 332.719 506.595 331.99 508.532 330.531C510.469 329.05 511.939 326.84 512.941 323.9C514.195 320.323 514.821 316.016 514.821 310.98C514.821 305.922 514.263 301.786 513.146 298.573C512.03 295.338 510.48 292.979 508.498 291.498C506.538 289.994 504.465 289.242 502.277 289.242C500.044 289.242 497.948 289.994 495.988 291.498C494.029 292.979 492.536 295.178 491.511 298.095C490.485 300.989 489.973 305.284 489.973 310.98ZM531.329 301.479H526.509C526.646 296.511 528.298 292.432 531.465 289.242C534.656 286.052 538.586 284.457 543.257 284.457C547.883 284.457 551.62 285.95 554.468 288.935C557.339 291.92 558.775 295.44 558.775 299.496C558.775 302.344 558.091 305.022 556.724 307.528C555.357 310.012 552.702 313.384 548.76 317.646L536.251 331.146H559.459V336H525.313L544.522 315.253C548.419 311.083 550.948 307.995 552.11 305.99C553.295 303.962 553.887 301.832 553.887 299.599C553.887 296.773 552.828 294.346 550.709 292.318C548.612 290.268 546.037 289.242 542.984 289.242C539.771 289.242 537.094 290.313 534.952 292.455C532.833 294.597 531.625 297.605 531.329 301.479Z" fill="#EE964B"/>
</g>
<g filter="url(#filter6_d_607_52)">
<path d="M390.222 501.878C390.222 495.247 390.928 490.12 392.341 486.497C393.776 482.874 395.793 480.128 398.391 478.26C400.988 476.391 403.894 475.457 407.106 475.457C410.365 475.457 413.316 476.403 415.959 478.294C418.602 480.162 420.687 482.977 422.214 486.736C423.763 490.496 424.538 495.543 424.538 501.878C424.538 508.19 423.775 513.214 422.248 516.951C420.744 520.688 418.659 523.514 415.993 525.428C413.327 527.319 410.365 528.265 407.106 528.265C403.894 528.265 401 527.342 398.425 525.496C395.85 523.65 393.833 520.905 392.375 517.259C390.939 513.59 390.222 508.463 390.222 501.878ZM394.973 501.98C394.973 507.654 395.474 511.95 396.477 514.866C397.502 517.76 399.006 519.959 400.988 521.463C402.971 522.967 405.067 523.719 407.277 523.719C409.51 523.719 411.595 522.99 413.532 521.531C415.469 520.05 416.939 517.84 417.941 514.9C419.195 511.323 419.821 507.016 419.821 501.98C419.821 496.922 419.263 492.786 418.146 489.573C417.03 486.338 415.48 483.979 413.498 482.498C411.538 480.994 409.465 480.242 407.277 480.242C405.044 480.242 402.948 480.994 400.988 482.498C399.029 483.979 397.536 486.178 396.511 489.095C395.485 491.989 394.973 496.284 394.973 501.98ZM437.491 488.377H432.364C433.298 484.23 435.087 481.04 437.73 478.807C440.373 476.574 443.495 475.457 447.095 475.457C449.716 475.457 452.154 476.061 454.41 477.269C456.688 478.453 458.443 480.06 459.673 482.088C460.927 484.116 461.553 486.235 461.553 488.445C461.553 492.775 459.4 496.204 455.093 498.733C457.509 499.713 459.491 501.149 461.041 503.04C463.228 505.706 464.322 508.691 464.322 511.995C464.322 514.843 463.57 517.566 462.066 520.164C460.562 522.739 458.511 524.733 455.914 526.146C453.316 527.558 450.411 528.265 447.198 528.265C442.868 528.265 439.257 527.023 436.363 524.539C433.469 522.033 431.578 518.364 430.689 513.533H435.611C436.477 516.792 437.719 519.15 439.337 520.608C441.41 522.454 444.053 523.377 447.266 523.377C450.912 523.377 453.84 522.283 456.05 520.096C458.261 517.908 459.366 515.345 459.366 512.405C459.366 510.446 458.808 508.611 457.691 506.902C456.597 505.193 455.116 503.906 453.248 503.04C451.402 502.174 448.531 501.639 444.634 501.434V496.819C446.936 496.819 449.032 496.421 450.923 495.623C452.815 494.803 454.182 493.766 455.025 492.513C455.891 491.259 456.324 489.892 456.324 488.411C456.324 486.224 455.447 484.332 453.692 482.737C451.96 481.142 449.761 480.345 447.095 480.345C444.931 480.345 443.062 480.96 441.49 482.19C439.918 483.398 438.585 485.46 437.491 488.377Z" fill="#EE964B"/>
</g>
<g filter="url(#filter7_d_607_52)">
<path d="M176.222 501.878C176.222 495.247 176.928 490.12 178.341 486.497C179.776 482.874 181.793 480.128 184.391 478.26C186.988 476.391 189.894 475.457 193.106 475.457C196.365 475.457 199.316 476.403 201.959 478.294C204.602 480.162 206.687 482.977 208.214 486.736C209.763 490.496 210.538 495.543 210.538 501.878C210.538 508.19 209.775 513.214 208.248 516.951C206.744 520.688 204.659 523.514 201.993 525.428C199.327 527.319 196.365 528.265 193.106 528.265C189.894 528.265 187 527.342 184.425 525.496C181.85 523.65 179.833 520.905 178.375 517.259C176.939 513.59 176.222 508.463 176.222 501.878ZM180.973 501.98C180.973 507.654 181.474 511.95 182.477 514.866C183.502 517.76 185.006 519.959 186.988 521.463C188.971 522.967 191.067 523.719 193.277 523.719C195.51 523.719 197.595 522.99 199.532 521.531C201.469 520.05 202.939 517.84 203.941 514.9C205.195 511.323 205.821 507.016 205.821 501.98C205.821 496.922 205.263 492.786 204.146 489.573C203.03 486.338 201.48 483.979 199.498 482.498C197.538 480.994 195.465 480.242 193.277 480.242C191.044 480.242 188.948 480.994 186.988 482.498C185.029 483.979 183.536 486.178 182.511 489.095C181.485 491.989 180.973 496.284 180.973 501.98ZM244.033 475.457H245.058V510.491H251.142V515.311H245.058V527H240.034V515.311H216.005L244.033 475.457ZM240.034 510.491V489.539L225.234 510.491H240.034Z" fill="#EE964B"/>
</g>
<defs>
<filter id="filter0_ddii_607_52" x="-70" y="-70" width="785" height="785" filterUnits="userSpaceOnUse" color-interpolation-filters="sRGB">
<feFlood flood-opacity="0" result="BackgroundImageFix"/>
<feColorMatrix in="SourceAlpha" type="matrix" values="0 0 0 0 0 0 0 0 0 0 0 0 0 0 0 0 0 0 127 0" result="hardAlpha"/>
<feOffset dx="20" dy="20"/>
<feGaussianBlur stdDeviation="25"/>
<feComposite in2="hardAlpha" operator="out"/>
<feColorMatrix type="matrix" values="0 0 0 0 0 0 0 0 0 0 0 0 0 0 0 0 0 0 0.05 0"/>
<feBlend mode="normal" in2="BackgroundImageFix" result="effect1_dropShadow_607_52"/>
<feColorMatrix in="SourceAlpha" type="matrix" values="0 0 0 0 0 0 0 0 0 0 0 0 0 0 0 0 0 0 127 0" result="hardAlpha"/>
<feOffset dx="-20" dy="-20"/>
<feGaussianBlur stdDeviation="25"/>
<feComposite in2="hardAlpha" operator="out"/>
<feColorMatrix type="matrix" values="0 0 0 0 1 0 0 0 0 1 0 0 0 0 1 0 0 0 1 0"/>
<feBlend mode="normal" in2="effect1_dropShadow_607_52" result="effect2_dropShadow_607_52"/>
<feBlend mode="normal" in="SourceGraphic" in2="effect2_dropShadow_607_52" result="shape"/>
<feColorMatrix in="SourceAlpha" type="matrix" values="0 0 0 0 0 0 0 0 0 0 0 0 0 0 0 0 0 0 127 0" result="hardAlpha"/>
<feOffset dx="20" dy="20"/>
<feGaussianBlur stdDeviation="25"/>
<feComposite in2="hardAlpha" operator="arithmetic" k2="-1" k3="1"/>
<feColorMatrix type="matrix" values="0 0 0 0 0 0 0 0 0 0 0 0 0 0 0 0 0 0 0.05 0"/>
<feBlend mode="normal" in2="shape" result="effect3_innerShadow_607_52"/>
<feColorMatrix in="SourceAlpha" type="matrix" values="0 0 0 0 0 0 0 0 0 0 0 0 0 0 0 0 0 0 127 0" result="hardAlpha"/>
<feOffset dx="-20" dy="-20"/>
<feGaussianBlur stdDeviation="25"/>
<feComposite in2="hardAlpha" operator="arithmetic" k2="-1" k3="1"/>
<feColorMatrix type="matrix" values="0 0 0 0 0.976471 0 0 0 0 0.976471 0 0 0 0 0.976471 0 0 0 1 0"/>
<feBlend mode="normal" in2="effect3_innerShadow_607_52" result="effect4_innerShadow_607_52"/>
</filter>
<filter id="filter1_dd_607_52" x="77.8931" y="-11" width="509.214" height="383.5" filterUnits="userSpaceOnUse" color-interpolation-filters="sRGB">
<feFlood flood-opacity="0" result="BackgroundImageFix"/>
<feColorMatrix in="SourceAlpha" type="matrix" values="0 0 0 0 0 0 0 0 0 0 0 0 0 0 0 0 0 0 127 0" result="hardAlpha"/>
<feOffset dx="10" dy="10"/>
<feGaussianBlur stdDeviation="20"/>
<feComposite in2="hardAlpha" operator="out"/>
<feColorMatrix type="matrix" values="0 0 0 0 0.933333 0 0 0 0 0.588235 0 0 0 0 0.294118 0 0 0 0.39 0"/>
<feBlend mode="normal" in2="BackgroundImageFix" result="effect1_dropShadow_607_52"/>
<feColorMatrix in="SourceAlpha" type="matrix" values="0 0 0 0 0 0 0 0 0 0 0 0 0 0 0 0 0 0 127 0" result="hardAlpha"/>
<feOffset dx="-5" dy="-5"/>
<feGaussianBlur stdDeviation="10"/>
<feComposite in2="hardAlpha" operator="out"/>
<feColorMatrix type="matrix" values="0 0 0 0 0.425 0 0 0 0 0.425 0 0 0 0 0.425 0 0 0 0.25 0"/>
<feBlend mode="normal" in2="effect1_dropShadow_607_52" result="effect2_dropShadow_607_52"/>
<feBlend mode="normal" in="SourceGraphic" in2="effect2_dropShadow_607_52" result="shape"/>
</filter>
<filter id="filter2_d_607_52" x="208" y="212" width="229" height="229" filterUnits="userSpaceOnUse" color-interpolation-filters="sRGB">
<feFlood flood-opacity="0" result="BackgroundImageFix"/>
<feColorMatrix in="SourceAlpha" type="matrix" values="0 0 0 0 0 0 0 0 0 0 0 0 0 0 0 0 0 0 127 0" result="hardAlpha"/>
<feOffset dy="4"/>
<feGaussianBlur stdDeviation="2"/>
<feComposite in2="hardAlpha" operator="out"/>
<feColorMatrix type="matrix" values="0 0 0 0 0 0 0 0 0 0 0 0 0 0 0 0 0 0 0.25 0"/>
<feBlend mode="normal" in2="BackgroundImageFix" result="effect1_dropShadow_607_52"/>
<feBlend mode="normal" in="SourceGraphic" in2="effect1_dropShadow_607_52" result="shape"/>
</filter>
<filter id="filter3_d_607_52" x="30.2217" y="254.457" width="173.724" height="152.808" filterUnits="userSpaceOnUse" color-interpolation-filters="sRGB">
<feFlood flood-opacity="0" result="BackgroundImageFix"/>
<feColorMatrix in="SourceAlpha" type="matrix" values="0 0 0 0 0 0 0 0 0 0 0 0 0 0 0 0 0 0 127 0" result="hardAlpha"/>
<feOffset dy="20"/>
<feGaussianBlur stdDeviation="25"/>
<feComposite in2="hardAlpha" operator="out"/>
<feColorMatrix type="matrix" values="0 0 0 0 0 0 0 0 0 0 0 0 0 0 0 0 0 0 0.2 0"/>
<feBlend mode="normal" in2="BackgroundImageFix" result="effect1_dropShadow_607_52"/>
<feBlend mode="normal" in="SourceGraphic" in2="effect1_dropShadow_607_52" result="shape"/>
</filter>
<filter id="filter4_d_607_52" x="237.222" y="75.457" width="160.838" height="152.808" filterUnits="userSpaceOnUse" color-interpolation-filters="sRGB">
<feFlood flood-opacity="0" result="BackgroundImageFix"/>
<feColorMatrix in="SourceAlpha" type="matrix" values="0 0 0 0 0 0 0 0 0 0 0 0 0 0 0 0 0 0 127 0" result="hardAlpha"/>
<feOffset dy="20"/>
<feGaussianBlur stdDeviation="25"/>
<feComposite in2="hardAlpha" operator="out"/>
<feColorMatrix type="matrix" values="0 0 0 0 0 0 0 0 0 0 0 0 0 0 0 0 0 0 0.3 0"/>
<feBlend mode="normal" in2="BackgroundImageFix" result="effect1_dropShadow_607_52"/>
<feBlend mode="normal" in="SourceGraphic" in2="effect1_dropShadow_607_52" result="shape"/>
</filter>
<filter id="filter5_d_607_52" x="435.222" y="254.457" width="174.237" height="152.808" filterUnits="userSpaceOnUse" color-interpolation-filters="sRGB">
<feFlood flood-opacity="0" result="BackgroundImageFix"/>
<feColorMatrix in="SourceAlpha" type="matrix" values="0 0 0 0 0 0 0 0 0 0 0 0 0 0 0 0 0 0 127 0" result="hardAlpha"/>
<feOffset dy="20"/>
<feGaussianBlur stdDeviation="25"/>
<feComposite in2="hardAlpha" operator="out"/>
<feColorMatrix type="matrix" values="0 0 0 0 0 0 0 0 0 0 0 0 0 0 0 0 0 0 0.2 0"/>
<feBlend mode="normal" in2="BackgroundImageFix" result="effect1_dropShadow_607_52"/>
<feBlend mode="normal" in="SourceGraphic" in2="effect1_dropShadow_607_52" result="shape"/>
</filter>
<filter id="filter6_d_607_52" x="340.222" y="445.457" width="174.1" height="152.808" filterUnits="userSpaceOnUse" color-interpolation-filters="sRGB">
<feFlood flood-opacity="0" result="BackgroundImageFix"/>
<feColorMatrix in="SourceAlpha" type="matrix" values="0 0 0 0 0 0 0 0 0 0 0 0 0 0 0 0 0 0 127 0" result="hardAlpha"/>
<feOffset dy="20"/>
<feGaussianBlur stdDeviation="25"/>
<feComposite in2="hardAlpha" operator="out"/>
<feColorMatrix type="matrix" values="0 0 0 0 0 0 0 0 0 0 0 0 0 0 0 0 0 0 0.2 0"/>
<feBlend mode="normal" in2="BackgroundImageFix" result="effect1_dropShadow_607_52"/>
<feBlend mode="normal" in="SourceGraphic" in2="effect1_dropShadow_607_52" result="shape"/>
</filter>
<filter id="filter7_d_607_52" x="126.222" y="445.457" width="174.92" height="152.808" filterUnits="userSpaceOnUse" color-interpolation-filters="sRGB">
<feFlood flood-opacity="0" result="BackgroundImageFix"/>
<feColorMatrix in="SourceAlpha" type="matrix" values="0 0 0 0 0 0 0 0 0 0 0 0 0 0 0 0 0 0 127 0" result="hardAlpha"/>
<feOffset dy="20"/>
<feGaussianBlur stdDeviation="25"/>
<feComposite in2="hardAlpha" operator="out"/>
<feColorMatrix type="matrix" values="0 0 0 0 0 0 0 0 0 0 0 0 0 0 0 0 0 0 0.2 0"/>
<feBlend mode="normal" in2="BackgroundImageFix" result="effect1_dropShadow_607_52"/>
<feBlend mode="normal" in="SourceGraphic" in2="effect1_dropShadow_607_52" result="shape"/>
</filter>
</defs>
</svg>
