<svg width="208" height="34" viewBox="0 0 208 34" fill="none" xmlns="http://www.w3.org/2000/svg">
<path d="M0.648926 8.40625H3.02441V11.6191C3.85612 10.4342 4.71061 9.56836 5.58789 9.02148C6.79557 8.29232 8.06592 7.92773 9.39893 7.92773C10.299 7.92773 11.1535 8.10433 11.9624 8.45752C12.7713 8.81071 13.4321 9.28353 13.9448 9.87598C14.4575 10.457 14.9019 11.2944 15.2778 12.3882C16.0754 10.9299 17.0723 9.82471 18.2686 9.07275C19.4648 8.30941 20.7523 7.92773 22.1309 7.92773C23.4183 7.92773 24.5519 8.25244 25.5317 8.90186C26.5229 9.55127 27.2578 10.457 27.7363 11.6191C28.2148 12.7812 28.4541 14.5244 28.4541 16.8486V27H26.0103V16.8486C26.0103 14.8548 25.8678 13.4876 25.583 12.7471C25.2982 11.9951 24.8083 11.3913 24.1133 10.9355C23.4297 10.4798 22.6094 10.252 21.6523 10.252C20.4902 10.252 19.425 10.5938 18.4565 11.2773C17.4995 11.9609 16.7988 12.8724 16.3545 14.0117C15.9102 15.151 15.688 17.0537 15.688 19.7197V27H13.3125V17.481C13.3125 15.2365 13.1701 13.7155 12.8853 12.918C12.6118 12.109 12.1276 11.4653 11.4326 10.9868C10.7376 10.4969 9.91162 10.252 8.95459 10.252C7.84945 10.252 6.81266 10.5881 5.84424 11.2603C4.88721 11.9211 4.17513 12.8154 3.70801 13.9434C3.25228 15.0713 3.02441 16.7974 3.02441 19.1216V27H0.648926V8.40625ZM31.5132 8.40625H34.0425L40.4341 22.7275L46.6377 8.40625H49.1841L38.0928 33.8018H35.5635L39.1523 25.5986L31.5132 8.40625ZM64.6504 1.22852C68.4557 1.22852 71.6401 2.49886 74.2036 5.03955C76.7671 7.58024 78.0488 10.7077 78.0488 14.4219C78.0488 18.1019 76.7671 21.2236 74.2036 23.7871C71.6515 26.3506 68.5355 27.6323 64.8555 27.6323C61.1299 27.6323 57.9854 26.3563 55.4219 23.8042C52.8584 21.2521 51.5767 18.1646 51.5767 14.5415C51.5767 12.1261 52.1577 9.88737 53.3198 7.8252C54.4933 5.76302 56.0884 4.15088 58.105 2.98877C60.1216 1.81527 62.3034 1.22852 64.6504 1.22852ZM64.77 3.68945C62.9129 3.68945 61.1527 4.17367 59.4893 5.14209C57.8258 6.11051 56.527 7.41504 55.5928 9.05566C54.6585 10.6963 54.1914 12.5249 54.1914 14.5415C54.1914 17.5265 55.2225 20.0501 57.2847 22.1123C59.3582 24.1631 61.8534 25.1885 64.77 25.1885C66.7183 25.1885 68.5184 24.7157 70.1704 23.77C71.8338 22.8244 73.127 21.5312 74.0498 19.8906C74.984 18.25 75.4512 16.4271 75.4512 14.4219C75.4512 12.4281 74.984 10.6279 74.0498 9.02148C73.127 7.40365 71.8224 6.11051 70.1362 5.14209C68.45 4.17367 66.6613 3.68945 64.77 3.68945ZM82.7314 8.40625H85.1069V11.8242C86.0526 10.5254 87.1406 9.55127 88.3711 8.90186C89.6016 8.25244 90.9744 7.92773 92.4897 7.92773C95.133 7.92773 97.3945 8.87907 99.2744 10.7817C101.154 12.6844 102.094 14.9744 102.094 17.6519C102.094 20.3862 101.16 22.7104 99.2915 24.6245C97.4344 26.5272 95.1899 27.4785 92.5581 27.4785C91.077 27.4785 89.7155 27.1709 88.4736 26.5557C87.2318 25.9404 86.1095 25.0233 85.1069 23.8042V33.8018H82.7314V8.40625ZM92.3018 10.2349C90.2282 10.2349 88.4793 10.9583 87.0552 12.4053C85.6424 13.8522 84.936 15.6523 84.936 17.8057C84.936 19.2184 85.2493 20.4888 85.876 21.6167C86.514 22.7446 87.4198 23.639 88.5933 24.2998C89.7782 24.9606 91.0257 25.291 92.3359 25.291C93.6234 25.291 94.8311 24.9606 95.959 24.2998C97.0983 23.6276 98.0041 22.6934 98.6763 21.4971C99.3485 20.3008 99.6846 19.0475 99.6846 17.7373C99.6846 16.4157 99.3485 15.1624 98.6763 13.9775C98.0155 12.7926 97.1211 11.8755 95.9932 11.2261C94.8652 10.5653 93.6348 10.2349 92.3018 10.2349ZM108.674 1.50195H111.083V8.40625H114.877V10.457H111.083V27H108.674V10.457H105.41V8.40625H108.674V1.50195ZM119.287 0.75C119.833 0.75 120.301 0.943685 120.688 1.33105C121.075 1.71842 121.269 2.18555 121.269 2.73242C121.269 3.2679 121.075 3.72933 120.688 4.1167C120.301 4.50407 119.833 4.69775 119.287 4.69775C118.751 4.69775 118.29 4.50407 117.902 4.1167C117.515 3.72933 117.321 3.2679 117.321 2.73242C117.321 2.18555 117.515 1.71842 117.902 1.33105C118.29 0.943685 118.751 0.75 119.287 0.75ZM118.09 8.40625H120.5V27H118.09V8.40625ZM125.439 8.40625H127.814V11.6191C128.646 10.4342 129.501 9.56836 130.378 9.02148C131.586 8.29232 132.856 7.92773 134.189 7.92773C135.089 7.92773 135.944 8.10433 136.752 8.45752C137.561 8.81071 138.222 9.28353 138.735 9.87598C139.248 10.457 139.692 11.2944 140.068 12.3882C140.865 10.9299 141.862 9.82471 143.059 9.07275C144.255 8.30941 145.542 7.92773 146.921 7.92773C148.208 7.92773 149.342 8.25244 150.322 8.90186C151.313 9.55127 152.048 10.457 152.526 11.6191C153.005 12.7812 153.244 14.5244 153.244 16.8486V27H150.8V16.8486C150.8 14.8548 150.658 13.4876 150.373 12.7471C150.088 11.9951 149.598 11.3913 148.903 10.9355C148.22 10.4798 147.399 10.252 146.442 10.252C145.28 10.252 144.215 10.5938 143.247 11.2773C142.29 11.9609 141.589 12.8724 141.145 14.0117C140.7 15.151 140.478 17.0537 140.478 19.7197V27H138.103V17.481C138.103 15.2365 137.96 13.7155 137.675 12.918C137.402 12.109 136.918 11.4653 136.223 10.9868C135.528 10.4969 134.702 10.252 133.745 10.252C132.639 10.252 131.603 10.5881 130.634 11.2603C129.677 11.9211 128.965 12.8154 128.498 13.9434C128.042 15.0713 127.814 16.7974 127.814 19.1216V27H125.439V8.40625ZM157.995 8.40625H160.405V17.0879C160.405 19.207 160.519 20.6654 160.747 21.4629C161.088 22.6022 161.738 23.5023 162.695 24.1631C163.663 24.8239 164.814 25.1543 166.147 25.1543C167.48 25.1543 168.608 24.8353 169.531 24.1973C170.465 23.5479 171.109 22.6991 171.462 21.6509C171.701 20.9331 171.821 19.4121 171.821 17.0879V8.40625H174.265V17.5322C174.265 20.0957 173.963 22.0269 173.359 23.3257C172.766 24.6245 171.866 25.6442 170.659 26.3848C169.462 27.1139 167.958 27.4785 166.147 27.4785C164.335 27.4785 162.82 27.1139 161.601 26.3848C160.393 25.6442 159.488 24.6188 158.884 23.3086C158.291 21.987 157.995 20.0046 157.995 17.3613V8.40625ZM179.58 8.40625H181.955V11.6191C182.787 10.4342 183.641 9.56836 184.519 9.02148C185.726 8.29232 186.997 7.92773 188.33 7.92773C189.23 7.92773 190.084 8.10433 190.893 8.45752C191.702 8.81071 192.363 9.28353 192.875 9.87598C193.388 10.457 193.833 11.2944 194.208 12.3882C195.006 10.9299 196.003 9.82471 197.199 9.07275C198.396 8.30941 199.683 7.92773 201.062 7.92773C202.349 7.92773 203.483 8.25244 204.462 8.90186C205.454 9.55127 206.188 10.457 206.667 11.6191C207.146 12.7812 207.385 14.5244 207.385 16.8486V27H204.941V16.8486C204.941 14.8548 204.799 13.4876 204.514 12.7471C204.229 11.9951 203.739 11.3913 203.044 10.9355C202.36 10.4798 201.54 10.252 200.583 10.252C199.421 10.252 198.356 10.5938 197.387 11.2773C196.43 11.9609 195.729 12.8724 195.285 14.0117C194.841 15.151 194.619 17.0537 194.619 19.7197V27H192.243V17.481C192.243 15.2365 192.101 13.7155 191.816 12.918C191.542 12.109 191.058 11.4653 190.363 10.9868C189.668 10.4969 188.842 10.252 187.885 10.252C186.78 10.252 185.743 10.5881 184.775 11.2603C183.818 11.9211 183.106 12.8154 182.639 13.9434C182.183 15.0713 181.955 16.7974 181.955 19.1216V27H179.58V8.40625Z" fill="#161616" fill-opacity="0.8"/>
</svg>
