<svg width="30" height="30" viewBox="0 0 30 30" fill="none" xmlns="http://www.w3.org/2000/svg">
<path d="M10.4975 0H19.4808L20.0008 0.0481635C21.1291 0.149777 22.2774 0.151539 23.3815 0.372974C26.3046 0.960333 28.3405 2.65487 29.3688 5.48301C29.8659 6.85214 29.9812 8.28295 29.9853 9.72257C29.9959 13.1616 30.0118 16.6011 29.9753 20.0395C29.9641 21.1279 29.8882 22.2333 29.6812 23.2994C29.1188 26.1745 27.4717 28.2074 24.7133 29.2811C23.3815 29.7991 21.9785 29.9371 20.5655 29.9512C17.396 29.983 14.2253 30.01 11.0557 29.9953C9.49391 29.9871 7.92385 29.9806 6.38732 29.6082C3.90016 29.0056 2.05185 27.5971 0.952988 25.2712C0.276491 23.8398 0.070012 22.3003 0.0535407 20.7373C0.0188335 17.4945 -0.0170503 14.2505 0.00883311 11.0077C0.0124156 9.64087 0.110693 8.27592 0.302962 6.92262C0.613563 4.82281 1.62713 3.07953 3.3472 1.79086C4.8202 0.686036 6.52968 0.247279 8.33269 0.117472C9.0533 0.0687211 9.77569 0.0393531 10.4975 0ZM15.0271 27.3633V27.3169C15.8195 27.3169 16.6154 27.3404 17.4048 27.3122C19.1043 27.2535 20.8167 27.267 22.4991 27.0614C24.7198 26.7907 26.2404 25.5343 26.9111 23.3552C27.2193 22.3567 27.2717 21.3176 27.284 20.2827C27.3152 17.6255 27.3528 14.9683 27.3293 12.3111C27.3152 10.7311 27.2752 9.14226 27.094 7.57518C26.8164 5.16701 25.2857 3.52945 22.9074 3.05662C21.8697 2.85046 20.7896 2.78937 19.7308 2.77175C17.1089 2.7277 14.4865 2.73592 11.8646 2.74473C10.3592 2.75002 8.84977 2.73005 7.35794 2.99201C5.07786 3.392 3.51426 4.83515 3.04895 7.10001C2.84836 8.07737 2.78129 9.09409 2.76012 10.0955C2.706 12.5078 2.68953 14.9189 2.716 17.3342C2.73482 19.0217 2.78365 20.715 2.9413 22.3937C3.08778 23.9531 3.80251 25.2647 5.12962 26.1763C6.15378 26.8811 7.32618 27.149 8.54152 27.1954C10.701 27.2776 12.8629 27.3122 15.0241 27.3633H15.0271Z" fill="#F9F9F9"/>
<path d="M7.29106 15.0187C7.27636 10.7738 10.75 7.30371 15.0143 7.30371C17.0582 7.302 19.0192 8.11028 20.4668 9.55108C21.9143 10.9919 22.7299 12.9474 22.7346 14.9881C22.7634 19.2301 19.2998 22.7072 15.0284 22.7219C10.7771 22.7366 7.30577 19.2812 7.29106 15.0187ZM14.9972 20.006C15.9871 20.0091 16.9556 19.719 17.7802 19.1724C18.6049 18.6258 19.2486 17.8472 19.63 16.9352C20.0114 16.0232 20.1132 15.0187 19.9227 14.0489C19.7322 13.0791 19.2578 12.1874 18.5596 11.4869C17.8614 10.7863 16.9708 10.3083 16.0004 10.1132C15.0301 9.91819 14.0236 10.0149 13.1083 10.3912C12.193 10.7675 11.4101 11.4064 10.8586 12.2271C10.3071 13.0478 10.0117 14.0133 10.01 15.0017C10.0069 15.6579 10.1337 16.3083 10.3832 16.9155C10.6326 17.5227 10.9998 18.0746 11.4636 18.5397C11.9273 19.0047 12.4786 19.3736 13.0856 19.6253C13.6926 19.8769 14.3435 20.0063 15.0008 20.006H14.9972Z" fill="#F9F9F9"/>
<path d="M23.0834 5.20261C23.3195 5.20801 23.5523 5.25979 23.7683 5.355C23.9844 5.45021 24.1796 5.58698 24.3427 5.7575C24.5059 5.92802 24.6338 6.12896 24.7191 6.34884C24.8045 6.56872 24.8456 6.80323 24.8402 7.03899C24.8348 7.27474 24.783 7.50713 24.6876 7.72288C24.5923 7.93862 24.4553 8.1335 24.2845 8.29639C24.1137 8.45928 23.9125 8.58698 23.6922 8.67221C23.472 8.75745 23.2372 8.79854 23.001 8.79314C22.7649 8.78781 22.5322 8.73611 22.3161 8.64097C22.1 8.54583 21.9047 8.40913 21.7415 8.23866C21.5784 8.06819 21.4504 7.86729 21.365 7.64745C21.2795 7.4276 21.2383 7.1931 21.2436 6.95734C21.249 6.72159 21.3007 6.48919 21.396 6.27341C21.4913 6.05764 21.6282 5.86271 21.7989 5.69977C21.9697 5.53683 22.1709 5.40906 22.3911 5.32375C22.6112 5.23845 22.8461 5.19728 23.0822 5.20261H23.0834Z" fill="#F9F9F9"/>
</svg>
