<?xml version="1.0" encoding="utf-8"?><svg viewBox="0 0 30 30" xmlns="http://www.w3.org/2000/svg" xmlns:xlink="http://www.w3.org/1999/xlink"><style>:root>svg{display:none}:root>svg:target{display:block}</style><svg fill="none" viewBox="0 0 30 30" id="instagram" xmlns="http://www.w3.org/2000/svg"><path d="M10.498 0h8.983l.52.048c1.128.102 2.276.104 3.38.325 2.924.587 4.96 2.282 5.988 5.11.497 1.37.612 2.8.616 4.24.01 3.439.027 6.878-.01 10.316-.01 1.089-.087 2.194-.294 3.26-.562 2.875-2.21 4.908-4.968 5.982-1.332.518-2.735.656-4.148.67-3.169.032-6.34.059-9.51.044-1.561-.008-3.131-.014-4.668-.387-2.487-.602-4.335-2.01-5.434-4.337-.677-1.431-.883-2.97-.9-4.534-.034-3.242-.07-6.486-.044-9.73.003-1.366.102-2.731.294-4.084.31-2.1 1.324-3.843 3.044-5.132C4.82.686 6.53.247 8.333.117 9.053.07 9.776.04 10.498 0zm4.53 27.363v-.046c.791 0 1.587.023 2.377-.005 1.7-.059 3.412-.045 5.094-.25 2.22-.271 3.741-1.528 4.412-3.707.308-.998.36-2.037.373-3.072.031-2.658.069-5.315.045-7.972-.014-1.58-.054-3.169-.235-4.736-.278-2.408-1.808-4.046-4.187-4.518-1.037-.207-2.117-.268-3.176-.285a390.212 390.212 0 00-7.866-.027c-1.506.005-3.015-.015-4.507.247-2.28.4-3.844 1.843-4.309 4.108-.2.977-.268 1.994-.289 2.995-.054 2.413-.07 4.824-.044 7.24.019 1.687.068 3.38.225 5.059.147 1.56.862 2.87 2.189 3.782 1.024.705 2.196.973 3.412 1.02 2.159.082 4.32.116 6.482.167h.003z" fill="#F9F9F9"/><path d="M7.291 15.019c-.015-4.245 3.459-7.715 7.723-7.715a7.72 7.72 0 015.453 2.247 7.696 7.696 0 012.268 5.437c.028 4.242-3.435 7.72-7.707 7.734-4.25.015-7.722-3.44-7.737-7.703zm7.706 4.987a5.009 5.009 0 004.633-3.07 4.988 4.988 0 00-1.07-5.45 5.006 5.006 0 00-8.177 5.43 4.98 4.98 0 002.703 2.71 4.996 4.996 0 001.915.38h-.004zm8.086-14.803a1.8 1.8 0 011.757 1.836 1.792 1.792 0 01-1.148 1.633 1.8 1.8 0 01-2.448-1.715 1.794 1.794 0 011.838-1.754h.001z" fill="#F9F9F9"/></svg><svg fill="none" viewBox="0 0 30 30" id="whatsapp" xmlns="http://www.w3.org/2000/svg"><path d="M0 30l1.353-4.948c.224-.822.457-1.642.665-2.47a.742.742 0 00-.051-.491C-1.871 15.053.422 6.382 7.274 2.185 10.214.383 13.434-.35 16.847.158c6.172.922 10.417 4.38 12.27 10.311 1.863 5.965.288 11.23-4.28 15.512-2.232 2.094-4.945 3.275-7.98 3.66-3.034.385-5.926-.124-8.65-1.52a.913.913 0 00-.707-.076c-2.401.64-4.803 1.274-7.206 1.901-.079.021-.16.03-.294.054zm3.564-3.524c.094-.017.132-.023.17-.033 1.367-.359 2.736-.712 4.1-1.083a.885.885 0 01.756.106c2.745 1.636 5.702 2.174 8.826 1.535 6.61-1.354 10.85-7.605 9.72-14.253-.96-5.643-5.832-9.964-11.532-10.205-3.152-.132-5.987.771-8.424 2.781-2.786 2.296-4.307 5.278-4.529 8.883-.165 2.655.503 5.118 1.938 7.36.166.26.2.482.114.779-.388 1.358-.753 2.723-1.139 4.13z" fill="#F9F9F9"/><path d="M10.166 8.045c.644-.16.951.22 1.173.79.336.873.703 1.734 1.074 2.593.128.3.116.563-.077.82-.3.399-.59.805-.904 1.194-.19.234-.21.45-.055.71 1.21 2.054 2.907 3.536 5.124 4.42.304.122.544.065.747-.187.364-.456.736-.904 1.097-1.361.265-.337.417-.42.797-.246 1.049.48 2.088.979 3.117 1.498.127.064.241.299.239.453-.024 1.584-.49 2.343-2.176 3.053-.957.402-1.95.307-2.937.032-3.58-.998-6.218-3.25-8.328-6.22-.657-.922-1.246-1.873-1.497-2.991-.361-1.61.033-3.003 1.219-4.17.38-.378.844-.463 1.387-.388z" fill="#F9F9F9"/></svg></svg>