<svg width="30" height="30" viewBox="0 0 30 30" fill="none" xmlns="http://www.w3.org/2000/svg">
<path d="M0 30.0005C0.459595 28.3196 0.906058 26.6861 1.35252 25.0521C1.57716 24.2295 1.80977 23.4097 2.01753 22.5828C2.05733 22.4179 2.03945 22.2443 1.96688 22.091C-1.87074 15.0526 0.422077 6.38244 7.27379 2.18489C10.2143 0.383384 13.4338 -0.349136 16.847 0.158138C23.0191 1.07977 27.2638 4.53777 29.1167 10.4693C30.98 16.4341 29.4051 21.6987 24.8378 25.9808C22.6045 28.0746 19.8915 29.2557 16.8573 29.641C13.823 30.0263 10.9313 29.5171 8.20704 28.1211C8.10028 28.0616 7.98268 28.0242 7.86119 28.011C7.73971 27.9979 7.61683 28.0093 7.49983 28.0446C5.09869 28.685 2.6966 29.3188 0.293578 29.946C0.215259 29.9671 0.133658 29.9761 0 30.0005ZM3.5642 26.4758C3.658 26.4585 3.69645 26.4533 3.73491 26.4434C5.1015 26.084 6.46996 25.7306 7.83374 25.3599C8.11513 25.2834 8.33601 25.313 8.5902 25.466C11.3351 27.1018 14.292 27.6401 17.4163 27.0014C24.0251 25.6466 28.2665 19.3956 27.1358 12.7485C26.1758 7.10464 21.3036 2.78413 15.6037 2.5434C12.4517 2.4106 9.61725 3.3144 7.17952 5.32426C4.39429 7.62036 2.8734 10.6021 2.65111 14.2074C2.48556 16.8625 3.15432 19.3247 4.58891 21.5678C4.75493 21.8273 4.78822 22.0493 4.70334 22.3458C4.31456 23.7039 3.95017 25.0685 3.5642 26.4758Z" fill="#F9F9F9"/>
<path d="M10.1662 8.04493C10.8096 7.88538 11.1173 8.26501 11.3386 8.83517C11.6753 9.70753 12.0421 10.5686 12.4126 11.4278C12.5415 11.7272 12.5293 11.991 12.3361 12.2477C12.036 12.6465 11.7452 13.0534 11.4319 13.4415C11.2415 13.6761 11.2228 13.8924 11.3766 14.1529C12.5866 16.2059 14.2842 17.6883 16.5015 18.5724C16.805 18.6935 17.0446 18.6371 17.2482 18.3847C17.6116 17.9295 17.984 17.4809 18.3446 17.0238C18.6096 16.6874 18.762 16.6043 19.1419 16.7784C20.1905 17.2573 21.2296 17.7565 22.2591 18.2758C22.3862 18.3401 22.5002 18.5747 22.4979 18.7291C22.4739 20.3129 22.0082 21.0717 20.3218 21.7817C19.3651 22.1843 18.3713 22.089 17.3851 21.8141C13.805 20.8159 11.1674 18.5635 9.05706 15.5944C8.40049 14.6723 7.81052 13.7211 7.55962 12.6029C7.19851 10.9933 7.59292 9.5996 8.77896 8.43395C9.15976 8.05478 9.62311 7.97032 10.1662 8.04493Z" fill="#F9F9F9"/>
</svg>
